<svg xmlns="http://www.w3.org/2000/svg" width="124.301" height="21.656" viewBox="0 0 124.301 21.656">
  <defs>
    <style>
      .cls-1 {
        fill: #fff;
      }
    </style>
  </defs>
  <g id="Group_380" data-name="Group 380" transform="translate(-185.873 -256.749)">
    <path id="Path_8" data-name="Path 8" class="cls-1" d="M480.094,280.589l-.37.253a3.417,3.417,0,0,1-1.771.541,1.466,1.466,0,0,1-1.137-.438,1.9,1.9,0,0,1-.417-1.334v-4.879h3.637v-2.362H476.4V269h-2.755v3.369h-4.613V283.7h2.755v-8.969h1.857v5.032a3.836,3.836,0,0,0,4.156,4.244,6.238,6.238,0,0,0,2.947-.9l.293-.162A4.759,4.759,0,0,1,480.094,280.589Z" transform="translate(-208.324 -9.013)"/>
    <path id="Path_9" data-name="Path 9" class="cls-1" d="M187.49,303.387c-.893,0-1.617,2.192-1.617,5.609h3.234c0-3.417-.724-5.609-1.617-5.609" transform="translate(0 -34.312)"/>
    <path id="Path_10" data-name="Path 10" class="cls-1" d="M229.877,256.749c-2.262,0-4.079,7.614-4.079,17.935h8.157c0-10.321-1.835-17.935-4.078-17.935" transform="translate(-29.373)"/>
    <path id="Path_11" data-name="Path 11" class="cls-1" d="M204.8,280.685c-1.424,0-2.569,4.781-2.569,11.609h5.137c0-6.827-1.156-11.609-2.568-11.609" transform="translate(-12.038 -17.61)"/>
    <path id="Path_12" data-name="Path 12" class="cls-1" d="M285.733,281.818a5.567,5.567,0,0,0-3.7-1.239,5.391,5.391,0,0,0-3.956,1.691,6.362,6.362,0,0,0-.011,8.573,5.4,5.4,0,0,0,3.967,1.68,5.566,5.566,0,0,0,3.7-1.24v.933h2.756V280.885h-2.756Zm-1,2.225a3.648,3.648,0,0,1,0,5.015,3.213,3.213,0,0,1-2.327.971,3.165,3.165,0,0,1-2.367-.946,3.892,3.892,0,0,1,0-5.066,3.164,3.164,0,0,1,2.367-.946,3.213,3.213,0,0,1,2.327.971" transform="translate(-66.612 -17.532)"/>
    <path id="Path_13" data-name="Path 13" class="cls-1" d="M342.5,280.588a4.933,4.933,0,0,0-4.026,1.808,3.959,3.959,0,0,0-1.382-1.253,4.983,4.983,0,0,0-5.487.609v-.858h-2.755v11.331H331.6V286.6a3.994,3.994,0,0,1,.722-2.582,2.344,2.344,0,0,1,1.926-.853,2.1,2.1,0,0,1,1.588.639,2.351,2.351,0,0,1,.622,1.725v6.694h2.755V286.6a3.955,3.955,0,0,1,.731-2.581,2.4,2.4,0,0,1,1.96-.855,2.1,2.1,0,0,1,1.588.639,2.352,2.352,0,0,1,.622,1.725v6.694h2.734v-7.153a4.371,4.371,0,0,0-1.264-3.233,4.24,4.24,0,0,0-3.09-1.251" transform="translate(-105.19 -17.539)"/>
    <path id="Path_14" data-name="Path 14" class="cls-1" d="M408.4,280.588a5.57,5.57,0,0,0-3.7,1.24v-.933h-2.755v15.05H404.7v-4.652a5.57,5.57,0,0,0,3.7,1.24,5.4,5.4,0,0,0,3.967-1.68,6.363,6.363,0,0,0-.011-8.574,5.392,5.392,0,0,0-3.956-1.691m2.932,5.972a3.457,3.457,0,0,1-.937,2.532,3.163,3.163,0,0,1-2.367.946,3.214,3.214,0,0,1-2.327-.971,3.647,3.647,0,0,1,0-5.015,3.215,3.215,0,0,1,2.327-.971,3.164,3.164,0,0,1,2.367.946,3.458,3.458,0,0,1,.937,2.533" transform="translate(-158.968 -17.539)"/>
    <rect id="Rectangle_30" data-name="Rectangle 30" class="cls-1" width="2.755" height="16.013" transform="translate(255.97 258.674)"/>
    <path id="Path_15" data-name="Path 15" class="cls-1" d="M523.437,287a4.427,4.427,0,0,1-.8,2.865,2.652,2.652,0,0,1-2.178.942,2.132,2.132,0,0,1-1.711-.738,2.956,2.956,0,0,1-.652-2v-6.322h-2.756v6.782a4.949,4.949,0,0,0,1.257,3.5,4.364,4.364,0,0,0,3.337,1.356,4.954,4.954,0,0,0,3.5-1.279v.973h2.755V281.747h-2.755Z" transform="translate(-242.396 -18.391)"/>
    <path id="Path_16" data-name="Path 16" class="cls-1" d="M570.394,269.652a5.593,5.593,0,0,0-3.7-1.243,5.392,5.392,0,0,0-3.956,1.691,6.334,6.334,0,0,0,0,8.562,5.393,5.393,0,0,0,3.956,1.691,5.672,5.672,0,0,0,3.7-1.231v.924h2.777V264.033h-2.777Zm-1,2.221a3.661,3.661,0,0,1,0,5.025,3.232,3.232,0,0,1-2.328.961,3.137,3.137,0,0,1-2.345-.946,3.878,3.878,0,0,1,0-5.056,3.121,3.121,0,0,1,2.344-.956,3.213,3.213,0,0,1,2.327.971" transform="translate(-276.042 -5.359)"/>
    <path id="Path_17" data-name="Path 17" class="cls-1" d="M620.717,282.489a6.024,6.024,0,0,0-4.289-1.652,6.1,6.1,0,0,0-4.31,1.651,6.009,6.009,0,0,0,0,8.521,6.076,6.076,0,0,0,4.31,1.663,6.013,6.013,0,0,0,4.278-1.663,6.048,6.048,0,0,0,.011-8.519m-.941,4.254a3.311,3.311,0,0,1-1,2.507,3.366,3.366,0,0,1-4.729,0,3.676,3.676,0,0,1,0-5.017,3.366,3.366,0,0,1,4.729,0,3.312,3.312,0,0,1,1,2.508" transform="translate(-312.292 -17.722)"/>
    <path id="Path_18" data-name="Path 18" class="cls-1" d="M469.5,267.336a1.667,1.667,0,0,0,1.207-.462,1.582,1.582,0,0,0,.477-1.179,1.61,1.61,0,0,0-.486-1.176,1.633,1.633,0,0,0-1.2-.486,1.659,1.659,0,0,0-1.22.486,1.61,1.61,0,0,0-.486,1.176,1.561,1.561,0,0,0,.491,1.181,1.7,1.7,0,0,0,1.215.46" transform="translate(-207.41 -5.359)"/>
  </g>
</svg>
