<svg xmlns="http://www.w3.org/2000/svg" width="400.5" height="111.412" viewBox="0 0 400.5 111.412">
  <defs>
    <style>
      .cls-1 {
        fill: #2972d6;
      }

      .cls-2 {
        fill: #fff;
      }
    </style>
  </defs>
  <g id="Group_395" data-name="Group 395" transform="translate(-33.596 -13.458)">
    <path id="Path_5" data-name="Path 5" class="cls-1" d="M168.212,13.458h179.1L332.272,95.185h-179.1Z" transform="translate(73.361 0)"/>
    <path id="Path_6" data-name="Path 6" class="cls-1" d="M284.212,13.458h5.357L274.531,95.185h-5.357Z" transform="translate(144.527 0)"/>
    <path id="Path_7" data-name="Path 7" class="cls-1" d="M162.212,13.458h5.357L152.531,95.185h-5.357Z" transform="translate(69.68 0)"/>
    <g id="Group_319" data-name="Group 319" transform="translate(33.596 24.833)">
      <path id="Path_32" data-name="Path 32" class="cls-1" d="M34.127,59.56,41.71,20.508H54.828L47.55,58.119a15.786,15.786,0,0,0-.381,2.958c0,1.972,1.365,2.5,2.958,2.5.834,0,1.593-.076,1.593-.076l-2.2,11.374a31.151,31.151,0,0,1-3.564.229c-6.9,0-12.359-2.58-12.359-10.768A23.5,23.5,0,0,1,34.127,59.56Z" transform="translate(-33.596 -20.508)"/>
      <path id="Path_33" data-name="Path 33" class="cls-1" d="M72.413,29.343c11.753,0,20.246,6.9,20.246,17.516,0,13.8-12.209,23.357-24.341,23.357-11.754,0-20.246-6.827-20.246-17.518C48.072,38.974,60.2,29.343,72.413,29.343ZM68.546,59.3a11.263,11.263,0,0,0,10.843-11.6c0-4.624-3.032-7.432-7.127-7.432-5.157,0-10.92,4.7-10.92,11.83C61.341,56.642,64.375,59.3,68.546,59.3Z" transform="translate(-24.715 -15.088)"/>
      <path id="Path_34" data-name="Path 34" class="cls-1" d="M102.332,29.343c11.072,0,15.925,5.763,15.925,5.763l-6.6,8.189a14.576,14.576,0,0,0-8.721-3.033,11.659,11.659,0,0,0-11.753,11.3c0,4.019,2.427,7.735,8.038,7.735,5.534,0,11.677-4.7,11.677-4.7l3.337,9.933A28.407,28.407,0,0,1,97.4,70.216c-12.892,0-19.488-7.964-19.488-17.9C77.917,41.173,87.471,29.343,102.332,29.343Z" transform="translate(-6.405 -15.088)"/>
      <path id="Path_35" data-name="Path 35" class="cls-1" d="M127.972,44.963h.531c.076-.531.152-1.213.152-1.439,0-2.58-1.82-3.564-4.929-3.564-4.928,0-11.3,3.564-11.3,3.564l-2.806-9.86s8.038-4.321,16.684-4.321c6.6,0,15.469,2.577,15.469,12.437a23.721,23.721,0,0,1-.379,3.79L136.845,69.3H124.863l.457-2.351A13.715,13.715,0,0,1,126,64.527h-.153s-4.247,5.689-11.525,5.689c-5.839,0-11.449-3.488-11.449-10.086C102.874,48.3,117.963,44.963,127.972,44.963Zm-8.719,15.243c3.413,0,7.127-3.716,7.733-6.9l.153-.834h-1.213c-2.807,0-9.858.607-9.858,5.233C116.068,59.144,117.053,60.206,119.253,60.206Z" transform="translate(8.906 -15.088)"/>
      <path id="Path_36" data-name="Path 36" class="cls-1" d="M131.228,59.56l7.583-39.052h13.118l-7.28,37.611a15.908,15.908,0,0,0-.379,2.958c0,1.972,1.367,2.5,2.957,2.5.834,0,1.593-.076,1.593-.076l-2.2,11.374a31.152,31.152,0,0,1-3.564.229c-6.9,0-12.359-2.58-12.359-10.768A23.5,23.5,0,0,1,131.228,59.56Z" transform="translate(25.975 -20.508)"/>
    </g>
    <g id="Group_321" data-name="Group 321" transform="translate(252.057 24.528)">
      <g id="Group_320" data-name="Group 320">
        <path id="Path_37" data-name="Path 37" class="cls-2" d="M176.5,35.673h13.118l-7.582,39.052H168.992Zm3.109-15.165h12.814l-1.97,10.238H177.637Z" transform="translate(-168.992 -20.203)"/>
        <path id="Path_38" data-name="Path 38" class="cls-2" d="M190.674,30.253h12.663l-.378,1.972a38.034,38.034,0,0,1-.986,3.866h.15c2.2-3.487,7.659-6.748,13.044-6.748,6.749,0,12.285,2.958,12.285,11.07a23.932,23.932,0,0,1-.531,4.324L222.144,69.3H209.026l4.4-22.445a15.15,15.15,0,0,0,.227-2.275c0-2.351-1.138-3.335-3.487-3.335-5.158,0-9.555,5.079-10.617,10.768L196.21,69.3H183.091Z" transform="translate(-160.342 -14.783)"/>
        <path id="Path_39" data-name="Path 39" class="cls-2" d="M219.758,46.709h-4.776l2.048-10.238h4.778l.3-1.668c2.275-12.814,13.878-14.484,19.793-14.484a46.138,46.138,0,0,1,4.778.228L244.4,31.618a11.086,11.086,0,0,0-1.972-.152c-2.578,0-6.749.455-7.356,3.792l-.228,1.213h7.2l-1.972,10.238h-7.2l-5.46,28.131H214.3Z" transform="translate(-141.197 -20.319)"/>
        <path id="Path_40" data-name="Path 40" class="cls-2" d="M255.56,29.343c11.753,0,20.246,6.9,20.246,17.516,0,13.8-12.208,23.357-24.341,23.357-11.753,0-20.246-6.827-20.246-17.518C231.219,38.974,243.353,29.343,255.56,29.343ZM251.693,59.3a11.263,11.263,0,0,0,10.844-11.6c0-4.624-3.033-7.432-7.128-7.432-5.157,0-10.92,4.7-10.92,11.83C244.488,56.642,247.522,59.3,251.693,59.3Z" transform="translate(-130.816 -14.783)"/>
      </g>
    </g>
    <g id="Group_322" data-name="Group 322" transform="translate(35.432 110.018)">
      <path id="Path_41" data-name="Path 41" class="cls-1" d="M34.734,73.423h1.113V84.759H34.734Z" transform="translate(-34.734 -73.229)"/>
      <path id="Path_42" data-name="Path 42" class="cls-1" d="M37.264,75.5h1.081v1.21c0,.353-.032.644-.032.644h.032A3.451,3.451,0,0,1,41.587,75.3c2,0,2.709,1.146,2.709,3.145v5.16H43.2V78.736c0-1.273-.194-2.4-1.757-2.4a3.084,3.084,0,0,0-2.951,2.291,4.013,4.013,0,0,0-.129,1.1v3.885h-1.1Z" transform="translate(-33.182 -72.077)"/>
      <path id="Path_43" data-name="Path 43" class="cls-1" d="M43.78,77.7H42.765v-.92H43.78v-.387c0-2.677,1.886-3.016,2.806-3.016a3.361,3.361,0,0,1,.5.032v.984a2.083,2.083,0,0,0-.387-.034c-.629,0-1.822.227-1.822,2.033v.387h2.08v.92h-2.08V84.79h-1.1Z" transform="translate(-29.807 -73.26)"/>
      <path id="Path_44" data-name="Path 44" class="cls-1" d="M50.244,75.3a4.249,4.249,0,1,1-4.289,4.208A4.2,4.2,0,0,1,50.244,75.3Zm0,7.516A3.2,3.2,0,0,0,53.4,79.51a3.161,3.161,0,1,0-6.322,0A3.2,3.2,0,0,0,50.244,82.818Z" transform="translate(-27.85 -72.077)"/>
      <path id="Path_45" data-name="Path 45" class="cls-1" d="M52.544,75.453h1.081v1.434c0,.355-.032.645-.032.645h.032a2.766,2.766,0,0,1,2.564-2.16,2.195,2.195,0,0,1,.436.048V76.5a2.92,2.92,0,0,0-.4-.031,2.6,2.6,0,0,0-2.354,2.094,5.369,5.369,0,0,0-.226,1.581v3.419h-1.1Z" transform="translate(-23.808 -72.034)"/>
      <path id="Path_46" data-name="Path 46" class="cls-1" d="M56.1,75.5h1.081v1.21c0,.353-.032.644-.032.644h.032A3.314,3.314,0,0,1,60.12,75.3a2.245,2.245,0,0,1,2.515,2.031h.032A3.3,3.3,0,0,1,65.651,75.3c1.967,0,2.693,1.146,2.693,3.145v5.16h-1.1V78.721c0-1.323-.274-2.419-1.757-2.419a2.884,2.884,0,0,0-2.564,2.29,3.855,3.855,0,0,0-.145,1.176v3.839h-1.1V78.721c0-1.226-.179-2.419-1.71-2.419a2.987,2.987,0,0,0-2.661,2.386,4.712,4.712,0,0,0-.113,1.079v3.839H56.1Z" transform="translate(-21.624 -72.077)"/>
      <path id="Path_47" data-name="Path 47" class="cls-1" d="M69.822,78.592h.45v-.21a1.82,1.82,0,0,0-2.015-2.1,3.949,3.949,0,0,0-2.29.773l-.516-.837a4.66,4.66,0,0,1,2.887-.92,2.763,2.763,0,0,1,3.032,3.112v5.192H70.321v-.887a6.415,6.415,0,0,1,.032-.678h-.032A2.93,2.93,0,0,1,67.611,83.8a2.513,2.513,0,0,1-2.757-2.4C64.854,78.656,68.418,78.592,69.822,78.592Zm-2.033,4.273c1.549,0,2.483-1.612,2.483-3.016v-.355H69.8c-1.273,0-3.821.048-3.821,1.839A1.61,1.61,0,0,0,67.789,82.864Z" transform="translate(-16.255 -72.077)"/>
      <path id="Path_48" data-name="Path 48" class="cls-1" d="M71.029,77.291H69.964v-.92h1.081V74.033h1.079v2.338h2.033v.92H72.124v4.031c0,1.9,1.21,2.146,1.823,2.146a1.8,1.8,0,0,0,.371-.034v.984a2.889,2.889,0,0,1-.468.032c-.936,0-2.822-.307-2.822-3.016Z" transform="translate(-13.12 -72.855)"/>
      <path id="Path_49" data-name="Path 49" class="cls-1" d="M73.764,73.423H74.91v1.37H73.764Zm.032,3.225h1.1v8.111H73.8Z" transform="translate(-10.789 -73.229)"/>
      <path id="Path_50" data-name="Path 50" class="cls-1" d="M75.414,75.422h1.162l2.257,5.951a10.054,10.054,0,0,1,.274.968h.032a8.922,8.922,0,0,1,.29-.968l2.241-5.951h1.144L79.72,83.533H78.526Z" transform="translate(-9.777 -72.003)"/>
      <path id="Path_51" data-name="Path 51" class="cls-1" d="M80.954,75.5h1.081v1.21c0,.353-.032.644-.032.644h.032a3.449,3.449,0,0,1,3.24-2.048c2,0,2.711,1.146,2.711,3.145v5.16h-1.1V78.736c0-1.273-.194-2.4-1.759-2.4a3.084,3.084,0,0,0-2.951,2.291,4.013,4.013,0,0,0-.129,1.1v3.885h-1.1Z" transform="translate(-6.378 -72.077)"/>
      <path id="Path_52" data-name="Path 52" class="cls-1" d="M86.863,73.423h1.146v1.37H86.863Zm.032,3.225h1.1v8.111H86.9Z" transform="translate(-2.753 -73.229)"/>
      <path id="Path_53" data-name="Path 53" class="cls-1" d="M91.893,75.5h1.049v.791a5.991,5.991,0,0,1-.032.629h.032A2.945,2.945,0,0,1,95.748,75.3c2.177,0,3.532,1.743,3.532,4.256,0,2.564-1.533,4.242-3.629,4.242a2.929,2.929,0,0,1-2.661-1.549h-.032s.032.292.032.712v3.869h-1.1Zm3.645,7.338c1.436,0,2.612-1.21,2.612-3.275,0-1.983-1.047-3.256-2.564-3.256-1.355,0-2.628.966-2.628,3.272C92.958,81.2,93.861,82.834,95.538,82.834Z" transform="translate(0.333 -72.077)"/>
      <path id="Path_54" data-name="Path 54" class="cls-1" d="M101.7,75.3a4.249,4.249,0,1,1-4.289,4.208A4.2,4.2,0,0,1,101.7,75.3Zm0,7.516a3.2,3.2,0,0,0,3.161-3.308,3.161,3.161,0,1,0-6.322,0A3.2,3.2,0,0,0,101.7,82.818Z" transform="translate(3.72 -72.077)"/>
      <path id="Path_55" data-name="Path 55" class="cls-1" d="M104,75.453h1.081v1.434c0,.355-.032.645-.032.645h.032a2.766,2.766,0,0,1,2.564-2.16,2.195,2.195,0,0,1,.436.048V76.5a2.919,2.919,0,0,0-.4-.031,2.6,2.6,0,0,0-2.354,2.094,5.369,5.369,0,0,0-.226,1.581v3.419H104Z" transform="translate(7.763 -72.034)"/>
      <path id="Path_56" data-name="Path 56" class="cls-1" d="M108.158,77.291h-1.065v-.92h1.081V74.033h1.081v2.338h2.031v.92h-2.031v4.031c0,1.9,1.209,2.146,1.822,2.146a1.8,1.8,0,0,0,.371-.034v.984a2.889,2.889,0,0,1-.468.032c-.936,0-2.822-.307-2.822-3.016Z" transform="translate(9.658 -72.855)"/>
      <path id="Path_57" data-name="Path 57" class="cls-1" d="M115.471,78.592h.45v-.21a1.82,1.82,0,0,0-2.015-2.1,3.949,3.949,0,0,0-2.29.773l-.516-.837a4.654,4.654,0,0,1,2.887-.92,2.763,2.763,0,0,1,3.032,3.112v5.192H115.97v-.887a6.415,6.415,0,0,1,.032-.678h-.032A2.93,2.93,0,0,1,113.26,83.8a2.513,2.513,0,0,1-2.758-2.4C110.5,78.656,114.067,78.592,115.471,78.592Zm-2.033,4.273c1.549,0,2.483-1.612,2.483-3.016v-.355h-.468c-1.273,0-3.821.048-3.821,1.839A1.61,1.61,0,0,0,113.438,82.864Z" transform="translate(11.75 -72.077)"/>
      <path id="Path_58" data-name="Path 58" class="cls-1" d="M116.063,73.423h1.1V82.6c0,1.063.482,1.225.9,1.225a2.491,2.491,0,0,0,.274-.016v.984a2.75,2.75,0,0,1-.4.032c-.676,0-1.87-.21-1.87-1.983Z" transform="translate(15.161 -73.229)"/>
      <path id="Path_59" data-name="Path 59" class="cls-1" d="M121.223,73.423h1.1V82.6c0,1.063.484,1.225.9,1.225a2.492,2.492,0,0,0,.274-.016v.984a2.779,2.779,0,0,1-.4.032c-.678,0-1.87-.21-1.87-1.983Z" transform="translate(18.327 -73.229)"/>
      <path id="Path_60" data-name="Path 60" class="cls-1" d="M127.663,75.3a4.249,4.249,0,1,1-4.29,4.208A4.2,4.2,0,0,1,127.663,75.3Zm0,7.516a3.2,3.2,0,0,0,3.161-3.308,3.161,3.161,0,1,0-6.322,0A3.2,3.2,0,0,0,127.663,82.818Z" transform="translate(19.646 -72.077)"/>
      <path id="Path_61" data-name="Path 61" class="cls-1" d="M129.962,73.423h1.1v6.322h1.291l2.435-3.1h1.323l-2.824,3.53v.034l3.1,4.547h-1.305L132.366,80.7h-1.307v4.064h-1.1Z" transform="translate(23.688 -73.229)"/>
      <path id="Path_62" data-name="Path 62" class="cls-1" d="M139.511,78.592h.45v-.21a1.82,1.82,0,0,0-2.015-2.1,3.949,3.949,0,0,0-2.29.773l-.516-.837a4.655,4.655,0,0,1,2.887-.92,2.763,2.763,0,0,1,3.032,3.112v5.192H140.01v-.887a6.412,6.412,0,0,1,.032-.678h-.032A2.93,2.93,0,0,1,137.3,83.8a2.513,2.513,0,0,1-2.757-2.4C134.543,78.656,138.107,78.592,139.511,78.592Zm-2.033,4.273c1.549,0,2.483-1.612,2.483-3.016v-.355h-.468c-1.273,0-3.821.048-3.821,1.839A1.61,1.61,0,0,0,137.478,82.864Z" transform="translate(26.499 -72.077)"/>
      <path id="Path_63" data-name="Path 63" class="cls-1" d="M140.1,73.423h1.1V82.6c0,1.063.484,1.225.9,1.225a2.491,2.491,0,0,0,.274-.016v.984a2.778,2.778,0,0,1-.4.032c-.678,0-1.87-.21-1.87-1.983Z" transform="translate(29.91 -73.229)"/>
      <path id="Path_64" data-name="Path 64" class="cls-1" d="M142.623,75.5H143.7v1.21c0,.353-.032.644-.032.644h.032a3.453,3.453,0,0,1,3.242-2.048c2,0,2.709,1.146,2.709,3.145v5.16h-1.1V78.736c0-1.273-.194-2.4-1.759-2.4a3.084,3.084,0,0,0-2.951,2.291,4.014,4.014,0,0,0-.129,1.1v3.885h-1.1Z" transform="translate(31.456 -72.077)"/>
      <path id="Path_65" data-name="Path 65" class="cls-1" d="M148.532,73.423h1.146v1.37h-1.146Zm.032,3.225h1.1v8.111h-1.1Z" transform="translate(35.081 -73.229)"/>
      <path id="Path_66" data-name="Path 66" class="cls-1" d="M150.872,73.423h1.1v4.385c0,.371-.032.663-.032.663h.032a3.473,3.473,0,0,1,3.225-2.017c2,0,2.709,1.146,2.709,3.145v5.16h-1.1V79.888c0-1.273-.194-2.4-1.757-2.4a3.08,3.08,0,0,0-2.951,2.307,3.821,3.821,0,0,0-.129,1.081v3.885h-1.1Z" transform="translate(36.517 -73.229)"/>
      <path id="Path_67" data-name="Path 67" class="cls-1" d="M161.429,76.648v8.416c0,2.695-1.918,3.017-2.822,3.017a2.2,2.2,0,0,1-.484-.048v-.952s.145.016.355.016c.629,0,1.854-.224,1.854-2.08V76.648Zm-1.113-3.225h1.129v1.37h-1.129Z" transform="translate(40.965 -73.229)"/>
      <path id="Path_68" data-name="Path 68" class="cls-1" d="M166.37,78.592h.452v-.21a1.821,1.821,0,0,0-2.017-2.1,3.955,3.955,0,0,0-2.29.773L162,76.222a4.66,4.66,0,0,1,2.887-.92,2.762,2.762,0,0,1,3.032,3.112v5.192H166.87v-.887a6.418,6.418,0,0,1,.032-.678h-.032a2.931,2.931,0,0,1-2.711,1.759,2.513,2.513,0,0,1-2.757-2.4C161.4,78.656,164.966,78.592,166.37,78.592Zm-2.031,4.273c1.547,0,2.483-1.612,2.483-3.016v-.355h-.468c-1.275,0-3.822.048-3.822,1.839A1.612,1.612,0,0,0,164.339,82.864Z" transform="translate(42.977 -72.077)"/>
      <path id="Path_69" data-name="Path 69" class="cls-1" d="M166.292,75.422h1.162l2.257,5.951a10.05,10.05,0,0,1,.274.968h.034a9.142,9.142,0,0,1,.289-.968l2.241-5.951h1.146l-3.1,8.111h-1.192Z" transform="translate(45.977 -72.003)"/>
      <path id="Path_70" data-name="Path 70" class="cls-1" d="M171.832,75.5h1.081v1.21a6.214,6.214,0,0,1-.034.644h.034a3.451,3.451,0,0,1,3.242-2.048c2,0,2.707,1.146,2.707,3.145v5.16h-1.1V78.736c0-1.273-.192-2.4-1.757-2.4a3.083,3.083,0,0,0-2.951,2.291,4.011,4.011,0,0,0-.129,1.1v3.885h-1.1Z" transform="translate(49.376 -72.077)"/>
      <path id="Path_71" data-name="Path 71" class="cls-1" d="M177.742,73.423h1.144v1.37h-1.144Zm.032,3.225h1.1v8.111h-1.1Z" transform="translate(53.001 -73.229)"/>
      <path id="Path_72" data-name="Path 72" class="cls-1" d="M180.082,73.423h1.1v4.385c0,.371-.032.663-.032.663h.032a3.471,3.471,0,0,1,3.225-2.017c2,0,2.707,1.146,2.707,3.145v5.16h-1.1V79.888c0-1.273-.192-2.4-1.757-2.4a3.079,3.079,0,0,0-2.951,2.307,3.822,3.822,0,0,0-.129,1.081v3.885h-1.1Z" transform="translate(54.437 -73.229)"/>
      <path id="Path_73" data-name="Path 73" class="cls-1" d="M192.35,75.3c2.243,0,3.387,1.725,3.387,3.742,0,.192-.032.565-.032.565H189.48a3.055,3.055,0,0,0,3.145,3.209,3.763,3.763,0,0,0,2.467-.986l.5.839a4.65,4.65,0,0,1-3,1.129,4.1,4.1,0,0,1-4.24-4.242A3.959,3.959,0,0,1,192.35,75.3Zm2.273,3.4a2.281,2.281,0,0,0-2.3-2.483,2.75,2.75,0,0,0-2.791,2.483Z" transform="translate(59.511 -72.077)"/>
      <path id="Path_74" data-name="Path 74" class="cls-1" d="M194.231,75.5h1.081v1.21c0,.353-.032.644-.032.644h.032a3.316,3.316,0,0,1,2.937-2.048,2.243,2.243,0,0,1,2.514,2.031h.034a3.3,3.3,0,0,1,2.982-2.031c1.968,0,2.693,1.146,2.693,3.145v5.16h-1.1V78.721c0-1.323-.274-2.419-1.757-2.419a2.886,2.886,0,0,0-2.565,2.29,3.907,3.907,0,0,0-.145,1.176v3.839h-1.1V78.721c0-1.226-.176-2.419-1.709-2.419a2.989,2.989,0,0,0-2.661,2.386,4.8,4.8,0,0,0-.113,1.079v3.839h-1.1Z" transform="translate(63.117 -72.077)"/>
      <path id="Path_75" data-name="Path 75" class="cls-1" d="M203.372,73.423h1.144v1.37h-1.144Zm.032,3.225h1.1v8.111h-1.1Z" transform="translate(68.725 -73.229)"/>
      <path id="Path_76" data-name="Path 76" class="cls-1" d="M206.306,77.291h-1.065v-.92h1.081V74.033H207.4v2.338h2.031v.92H207.4v4.031c0,1.9,1.209,2.146,1.822,2.146a1.771,1.771,0,0,0,.369-.034v.984a2.853,2.853,0,0,1-.466.032c-.936,0-2.822-.307-2.822-3.016Z" transform="translate(69.872 -72.855)"/>
      <path id="Path_77" data-name="Path 77" class="cls-1" d="M212.71,75.3c2.243,0,3.387,1.725,3.387,3.742,0,.192-.031.565-.031.565H209.84a3.055,3.055,0,0,0,3.145,3.209,3.77,3.77,0,0,0,2.469-.986l.5.839a4.643,4.643,0,0,1-3,1.129,4.1,4.1,0,0,1-4.242-4.242A3.959,3.959,0,0,1,212.71,75.3Zm2.275,3.4a2.282,2.282,0,0,0-2.306-2.483,2.751,2.751,0,0,0-2.791,2.483Z" transform="translate(72.001 -72.077)"/>
      <path id="Path_78" data-name="Path 78" class="cls-1" d="M214.591,75.453h1.081v1.434a6.216,6.216,0,0,1-.034.645h.034a2.767,2.767,0,0,1,2.564-2.16,2.217,2.217,0,0,1,.436.048V76.5a2.92,2.92,0,0,0-.4-.031,2.6,2.6,0,0,0-2.356,2.094,5.421,5.421,0,0,0-.224,1.581v3.419h-1.1Z" transform="translate(75.608 -72.034)"/>
      <path id="Path_79" data-name="Path 79" class="cls-1" d="M222.708,78.592h.452v-.21a1.821,1.821,0,0,0-2.015-2.1,3.949,3.949,0,0,0-2.29.773l-.518-.837a4.66,4.66,0,0,1,2.887-.92,2.762,2.762,0,0,1,3.032,3.112v5.192h-1.047v-.887a6.418,6.418,0,0,1,.032-.678h-.032A2.93,2.93,0,0,1,220.5,83.8a2.512,2.512,0,0,1-2.757-2.4C217.742,78.656,221.3,78.592,222.708,78.592Zm-2.031,4.273c1.549,0,2.483-1.612,2.483-3.016v-.355h-.466c-1.275,0-3.824.048-3.824,1.839A1.613,1.613,0,0,0,220.677,82.864Z" transform="translate(77.541 -72.077)"/>
      <path id="Path_80" data-name="Path 80" class="cls-1" d="M231.465,73.3a5.752,5.752,0,0,1,4.079,1.468l-.6.821a5.326,5.326,0,0,0-3.451-1.259,4.533,4.533,0,0,0-4.563,4.742,4.673,4.673,0,0,0,4.6,4.92,5.3,5.3,0,0,0,3.676-1.517l.645.789a6.045,6.045,0,0,1-4.339,1.759,5.709,5.709,0,0,1-5.741-5.934A5.625,5.625,0,0,1,231.465,73.3Z" transform="translate(82.467 -73.303)"/>
      <path id="Path_81" data-name="Path 81" class="cls-1" d="M233.321,75.453H234.4v1.434c0,.355-.032.645-.032.645h.032a2.767,2.767,0,0,1,2.564-2.16,2.223,2.223,0,0,1,.437.048V76.5a2.951,2.951,0,0,0-.4-.031,2.6,2.6,0,0,0-2.356,2.094,5.368,5.368,0,0,0-.226,1.581v3.419h-1.1Z" transform="translate(87.099 -72.034)"/>
      <path id="Path_82" data-name="Path 82" class="cls-1" d="M236.881,75.5h1.081v1.21a6.214,6.214,0,0,1-.034.644h.034A3.449,3.449,0,0,1,241.2,75.3c2,0,2.707,1.146,2.707,3.145v5.16h-1.1V78.736c0-1.273-.194-2.4-1.757-2.4a3.081,3.081,0,0,0-2.951,2.291,4.013,4.013,0,0,0-.129,1.1v3.885h-1.1Z" transform="translate(89.283 -72.077)"/>
      <path id="Path_83" data-name="Path 83" class="cls-1" d="M246.459,75.3c2.243,0,3.387,1.725,3.387,3.742,0,.192-.031.565-.031.565h-6.226a3.055,3.055,0,0,0,3.145,3.209,3.77,3.77,0,0,0,2.469-.986l.5.839a4.643,4.643,0,0,1-3,1.129,4.1,4.1,0,0,1-4.242-4.242A3.959,3.959,0,0,1,246.459,75.3Zm2.275,3.4a2.282,2.282,0,0,0-2.306-2.483,2.751,2.751,0,0,0-2.791,2.483Z" transform="translate(92.706 -72.077)"/>
      <path id="Path_84" data-name="Path 84" class="cls-1" d="M256.469,73.3a6.117,6.117,0,0,1,4.031,1.323l-.6.837a5.578,5.578,0,0,0-3.387-1.129,4.84,4.84,0,0,0-.1,9.662,4.95,4.95,0,0,0,3.564-1.662V80.415h-1.936v-1h3v5.418h-1.033V83.98c0-.244.018-.484.018-.484H260a5.067,5.067,0,0,1-3.692,1.531,5.617,5.617,0,0,1-5.547-5.872A5.691,5.691,0,0,1,256.469,73.3Z" transform="translate(97.798 -73.303)"/>
      <path id="Path_85" data-name="Path 85" class="cls-1" d="M262.53,75.3a4.249,4.249,0,1,1-4.289,4.208A4.2,4.2,0,0,1,262.53,75.3Zm0,7.516a3.2,3.2,0,0,0,3.161-3.308,3.161,3.161,0,1,0-6.322,0A3.2,3.2,0,0,0,262.53,82.818Z" transform="translate(102.387 -72.077)"/>
      <path id="Path_86" data-name="Path 86" class="cls-1" d="M264.83,75.453h1.081v1.434a6.2,6.2,0,0,1-.034.645h.034a2.767,2.767,0,0,1,2.564-2.16,2.2,2.2,0,0,1,.436.048V76.5a2.92,2.92,0,0,0-.4-.031,2.6,2.6,0,0,0-2.356,2.094,5.419,5.419,0,0,0-.224,1.581v3.419h-1.1Z" transform="translate(106.43 -72.034)"/>
      <path id="Path_87" data-name="Path 87" class="cls-1" d="M271.98,75.3c2.243,0,3.387,1.725,3.387,3.742,0,.192-.032.565-.032.565h-6.225a3.055,3.055,0,0,0,3.145,3.209,3.764,3.764,0,0,0,2.467-.986l.5.839a4.65,4.65,0,0,1-3,1.129,4.1,4.1,0,0,1-4.242-4.242A3.96,3.96,0,0,1,271.98,75.3Zm2.273,3.4a2.282,2.282,0,0,0-2.306-2.483,2.75,2.75,0,0,0-2.79,2.483Z" transform="translate(108.362 -72.077)"/>
    </g>
  </g>
</svg>
