<svg xmlns="http://www.w3.org/2000/svg" width="186" height="51.895" viewBox="0 0 186 51.895">
  <defs>
    <style>
      .cls-1 {
        fill: #fff;
      }

      .cls-1, .cls-2 {
        fill-rule: evenodd;
      }

      .cls-2 {
        fill: #2972d6;
      }
    </style>
  </defs>
  <g id="OSCE_logo" transform="translate(-705.326 -593.565)">
    <g id="g4159" transform="translate(705.326 593.565)">
      <path id="path3986" class="cls-1" d="M732.391,627.709H687.609V575.814h44.781Z" transform="translate(-687.609 -575.814)"/>
      <path id="path3988" class="cls-1" d="M931.8,627.709H887.636V575.814H931.8Z" transform="translate(-839.908 -575.814)"/>
      <path id="path3990" class="cls-1" d="M1129.353,627.709h-44.159V575.814h44.159Z" transform="translate(-990.327 -575.814)"/>
      <path id="path3992" class="cls-1" d="M1326.015,627.709H1281.79V575.814h44.225Z" transform="translate(-1140.015 -575.814)"/>
      <path id="path3996" class="cls-2" d="M1335.858,637.434a31.158,31.158,0,0,1-5.441,2.609,13.989,13.989,0,0,1-10.724-.825,11.26,11.26,0,0,1-4.773-4.743,18.758,18.758,0,0,1-1.781-8.462h11.709c2.609,0,5.247-.062,7.856-.255a43.5,43.5,0,0,0,4.71-.6c.095-.989.128-1.817.128-2.485a16.639,16.639,0,0,0-1.529-7.254,11.338,11.338,0,0,0-4.8-5.058,14.694,14.694,0,0,0-7.352-1.879,15.975,15.975,0,0,0-6.2,1.211,21.327,21.327,0,0,0-4.39,2.386,18.619,18.619,0,0,0-3.277,2.671,14.207,14.207,0,0,0-2.58,4.963,23.219,23.219,0,0,0-1.146,7.542,19.412,19.412,0,0,0,2.164,9.323,14.17,14.17,0,0,0,6.013,5.981,18.908,18.908,0,0,0,8.655,1.974,19.685,19.685,0,0,0,4.612-.511,22.763,22.763,0,0,0,3.915-1.3,31.433,31.433,0,0,0,3.66-2.069l1.142-2.609Zm-20.142-23.543a8.207,8.207,0,0,1,6.652-3.025,7.739,7.739,0,0,1,6.236,2.769c1.558,1.846,2.354,4.711,2.354,8.622,0,.318,0,.8-.033,1.4-1.051.095-3.149.157-6.4.157-1.365,0-3.879-.062-7.509-.157-1.905-.128-3.211-.223-3.879-.288.03-4.328.891-7.509,2.576-9.48" transform="translate(-1158.65 -600.686)"/>
      <path id="path4000" class="cls-2" d="M1145.4,638.58,1143.968,641a22,22,0,0,1-4.93,2,22.507,22.507,0,0,1-5.506.606c-5.058,0-9.1-1.529-12.089-4.583-3.025-3.054-4.517-7.287-4.517-12.632a20.751,20.751,0,0,1,1.208-7.382,13.214,13.214,0,0,1,2.992-4.835,23.321,23.321,0,0,1,4.547-3.116,52.8,52.8,0,0,1,4.678-2.452,14.865,14.865,0,0,1,5.886-1.048,23.567,23.567,0,0,1,5.856.668,12.422,12.422,0,0,1,3.309,1.43c-.288,1.846-.51,3.277-.638,4.233-.128.923-.285,2.671-.478,5.185h-2.1a32.683,32.683,0,0,0-.445-4.328,1.8,1.8,0,0,0-.638-.953,11.352,11.352,0,0,0-3.306-1.719,13.157,13.157,0,0,0-4.426-.733,10.465,10.465,0,0,0-5.218,1.241,8.152,8.152,0,0,0-3.4,3.977,16.117,16.117,0,0,0-1.211,6.714,22.111,22.111,0,0,0,1.719,8.907,12.161,12.161,0,0,0,4.71,5.824,12.387,12.387,0,0,0,6.616,1.814,15.144,15.144,0,0,0,3.6-.445,30.4,30.4,0,0,0,4.485-1.751l.733.956" transform="translate(-1014.488 -599.986)"/>
      <path id="path4004" class="cls-2" d="M926,631.676h2.1a26.013,26.013,0,0,0,.223,3.31,12.976,12.976,0,0,0,.6,2.416,4.94,4.94,0,0,0,1.339,1.974,6.649,6.649,0,0,0,1.941,1.241,7.853,7.853,0,0,0,2.164.606,27.655,27.655,0,0,0,3.339.157,9.187,9.187,0,0,0,6.014-1.971,6.551,6.551,0,0,0,2.354-5.313,4.7,4.7,0,0,0-.763-2.674,4.8,4.8,0,0,0-2.131-1.814,33.151,33.151,0,0,0-5.981-1.686c-3.057-.7-5.028-1.208-5.951-1.529a9.947,9.947,0,0,1-3.215-1.843,7.377,7.377,0,0,1-1.876-2.737,9.11,9.11,0,0,1-.733-3.627,9.513,9.513,0,0,1,1.529-5.218,10.526,10.526,0,0,1,4.74-3.915,16.847,16.847,0,0,1,7.064-1.493,26.993,26.993,0,0,1,5.346.6,21.79,21.79,0,0,1,4.9,1.5c-.062,2.7-.1,5.473-.124,8.272h-2.1a20.409,20.409,0,0,0-.445-3.467,4.563,4.563,0,0,0-.635-1.5,5.093,5.093,0,0,0-1.368-1.4,11.418,11.418,0,0,0-2.514-1.336,11.2,11.2,0,0,0-3.817-.573,7.176,7.176,0,0,0-5.156,1.876,6.086,6.086,0,0,0-1.941,4.422,4.76,4.76,0,0,0,.573,2.419,4.4,4.4,0,0,0,1.5,1.653,10.054,10.054,0,0,0,2.609,1.146l5.948,1.5a38.445,38.445,0,0,1,6.236,1.974,6.817,6.817,0,0,1,2.737,2.576,8.1,8.1,0,0,1,1.018,4.233,11.2,11.2,0,0,1-4.007,8.527c-2.674,2.416-6.269,3.627-10.753,3.627a47.461,47.461,0,0,1-8.243-.956,11.178,11.178,0,0,1-3.054-.763.418.418,0,0,1-.16-.35,5.771,5.771,0,0,1,.065-.635,20.7,20.7,0,0,0,.445-3.025q.143-1.478.19-6.2" transform="translate(-868.582 -599.986)"/>
      <path id="path4008" class="cls-2" d="M710.635,634.508a16.884,16.884,0,0,0,2.671,4.39,13.444,13.444,0,0,0,4.616,3.565,15.238,15.238,0,0,0,6.933,1.431,18.921,18.921,0,0,0,9.64-2.514,17.287,17.287,0,0,0,6.747-6.871,20.169,20.169,0,0,0,2.419-9.735,17.071,17.071,0,0,0-4.678-12.41,15.981,15.981,0,0,0-12.06-4.8,17.178,17.178,0,0,0-12.884,5.152c-3.372,3.437-5.028,7.86-5.028,13.3a22.162,22.162,0,0,0,1.624,8.495m7.7-21.284a8.8,8.8,0,0,1,7.126-3.28,9.859,9.859,0,0,1,5.7,1.751c1.719,1.146,3.116,3.149,4.233,5.981a27.42,27.42,0,0,1,1.653,10.056c0,4.675-.923,8.144-2.8,10.4a8.6,8.6,0,0,1-6.936,3.372,9.616,9.616,0,0,1-6.013-2.164,13.036,13.036,0,0,1-4.233-6.776,30.327,30.327,0,0,1-1.463-9.2c0-4.58.891-7.987,2.737-10.148" transform="translate(-703.904 -599.986)"/>
    </g>
  </g>
</svg>
